<svg width="17" height="17" viewBox="0 0 17 17" fill="none" xmlns="http://www.w3.org/2000/svg">
<path d="M4.52417 15.0015C5.68047 15.6366 7.02209 16 8.45281 16C12.8021 16 16.3281 12.6421 16.3281 8.5C16.3281 4.35786 12.8024 1 8.45312 1C4.10388 1 0.578125 4.35786 0.578125 8.5C0.578125 9.8626 0.959663 11.1403 1.62654 12.2416L1.62913 12.2458C1.69329 12.3518 1.72565 12.4052 1.74031 12.4557C1.75413 12.5033 1.75799 12.5462 1.75445 12.5955C1.75065 12.6484 1.7319 12.7034 1.69347 12.8132L1.02075 14.7352L1.01991 14.7377C0.877968 15.1433 0.806999 15.346 0.857586 15.4811C0.901694 15.5989 0.999599 15.6919 1.12329 15.7339C1.26484 15.782 1.47679 15.7147 1.90073 15.5801L1.90601 15.5783L3.92417 14.9376C4.03908 14.9011 4.09749 14.8826 4.15302 14.879C4.20478 14.8756 4.24943 14.8801 4.29944 14.8932C4.3526 14.9072 4.40873 14.9381 4.52056 14.9995L4.52417 15.0015Z" stroke="white" stroke-linecap="round" stroke-linejoin="round"/>
</svg>
