<svg width="19" height="18" viewBox="0 0 19 18" fill="none" xmlns="http://www.w3.org/2000/svg">
<path d="M16.8279 2.25021C18.439 3.8613 18.5007 6.45372 16.9681 8.13961L9.28853 16.5864L1.61002 8.13958C0.0773893 6.45369 0.139113 3.86124 1.7502 2.25015C3.54907 0.45128 6.51169 0.615657 8.10091 2.60218L9.28906 4.08682L10.4762 2.60201C12.0654 0.615488 15.029 0.451337 16.8279 2.25021Z" stroke="white" stroke-linecap="round" stroke-linejoin="round"/>
<path d="M10.4166 7.84391C10.3782 7.52005 10.2227 7.26863 9.94997 7.08965C9.67725 6.91068 9.34273 6.82119 8.94642 6.82119C8.65665 6.82119 8.4031 6.86806 8.18577 6.96181C7.97057 7.05556 7.80225 7.18447 7.6808 7.34853C7.56148 7.51259 7.50182 7.69903 7.50182 7.90784C7.50182 8.08255 7.54337 8.23276 7.62646 8.35847C7.71169 8.48205 7.82036 8.58539 7.95246 8.66849C8.08456 8.74945 8.22306 8.81657 8.36794 8.86984C8.51283 8.92097 8.646 8.96252 8.76744 8.99448L9.43222 9.17346C9.60267 9.2182 9.7923 9.27999 10.0011 9.35883C10.212 9.43766 10.4134 9.54526 10.6052 9.68163C10.7991 9.81586 10.9589 9.98845 11.0846 10.1994C11.2103 10.4103 11.2731 10.6692 11.2731 10.976C11.2731 11.3297 11.1804 11.6493 10.9951 11.9348C10.8118 12.2203 10.5434 12.4473 10.1897 12.6156C9.83811 12.7839 9.41091 12.8681 8.90807 12.8681C8.43932 12.8681 8.03343 12.7924 7.69039 12.6411C7.34948 12.4899 7.08101 12.2789 6.88499 12.0083C6.6911 11.7377 6.58137 11.4235 6.5558 11.0655H7.37398C7.39529 11.3127 7.47838 11.5172 7.62327 11.6791C7.77029 11.8389 7.95566 11.9583 8.17938 12.0371C8.40523 12.1138 8.64813 12.1522 8.90807 12.1522C9.21063 12.1522 9.48229 12.1031 9.72306 12.0051C9.96382 11.905 10.1545 11.7665 10.2951 11.5897C10.4358 11.4107 10.5061 11.2019 10.5061 10.9632C10.5061 10.7459 10.4454 10.5691 10.3239 10.4327C10.2025 10.2963 10.0427 10.1855 9.8445 10.1003C9.64635 10.0151 9.43222 9.94051 9.2021 9.87659L8.39671 9.64647C7.88534 9.49945 7.48051 9.28958 7.18222 9.01686C6.88392 8.74413 6.73477 8.38724 6.73477 7.94619C6.73477 7.57971 6.83385 7.26011 7.032 6.98738C7.23229 6.71252 7.50075 6.49945 7.8374 6.34818C8.17618 6.19477 8.55438 6.11806 8.97199 6.11806C9.39387 6.11806 9.76887 6.1937 10.097 6.34498C10.4251 6.49413 10.6851 6.69867 10.8768 6.95862C11.0707 7.21856 11.173 7.51366 11.1836 7.84391H10.4166Z" fill="white"/>
<line x1="9.03906" y1="4.75301" x2="9.03906" y2="6.75301" stroke="white" stroke-width="0.5"/>
<line x1="9.03906" y1="12.753" x2="9.03906" y2="13.753" stroke="white" stroke-width="0.5"/>
</svg>
