<svg width="15" height="18" viewBox="0 0 15 18" fill="none" xmlns="http://www.w3.org/2000/svg">
<path d="M0.5 8.79451V14.1425C0.5 15.2626 0.5 15.823 0.690739 16.2508C0.858517 16.6272 1.12604 16.9328 1.45532 17.1246C1.8293 17.3424 2.31912 17.3424 3.2973 17.3424H11.7027C12.6809 17.3424 13.17 17.3424 13.544 17.1246C13.8733 16.9328 14.1417 16.6272 14.3094 16.2508C14.5 15.8234 14.5 15.2639 14.5 14.1459V8.79451C14.5 8.26017 14.4996 7.99286 14.4427 7.74422C14.3924 7.52387 14.3097 7.31535 14.1977 7.12693C14.0715 6.9143 13.8959 6.73797 13.544 6.38611L9.34399 2.18611C8.69071 1.53283 8.36407 1.20635 7.99646 1.08211C7.67254 0.972631 7.32728 0.972631 7.00337 1.08211C6.63604 1.20626 6.30987 1.53242 5.65757 2.18472L1.45618 6.38611C1.10431 6.73798 0.928786 6.9143 0.80249 7.12693C0.690568 7.31536 0.60723 7.52387 0.55685 7.74422C0.5 7.99286 0.5 8.26017 0.5 8.79451Z" stroke="white" stroke-linecap="round" stroke-linejoin="round"/>
</svg>
