<svg width="18" height="18" viewBox="0 0 18 18" fill="none" xmlns="http://www.w3.org/2000/svg">
<circle cx="9.07812" cy="8.5" r="8.15" fill="#7E9684" stroke="white" stroke-width="0.7"/>
<path d="M11.7742 11.5888C11.6761 11.9948 11.5175 12.1649 11.3629 12.2487C11.183 12.3462 10.9313 12.3704 10.5744 12.3404C10.4002 12.3258 10.216 12.3 10.0162 12.2714L9.99176 12.2679C9.8024 12.2409 9.60021 12.212 9.39677 12.1924C8.9745 12.1517 8.5102 12.1465 8.06583 12.2947C7.32979 12.54 6.65937 12.6322 6.19657 12.4814C5.97895 12.4105 5.80928 12.2868 5.68842 12.0912C5.56805 11.8964 5.48094 11.605 5.47507 11.1735C6.01796 9.25422 7.21835 7.97671 8.62476 7.97671C8.90683 7.97671 9.24648 8.09661 9.61431 8.33462C9.97801 8.56996 10.3435 8.90437 10.6701 9.29029C10.9962 9.67572 11.2758 10.1035 11.4725 10.5187C11.6631 10.921 11.7661 11.291 11.7742 11.5888Z" fill="#7E9684" stroke="white" stroke-width="0.7"/>
<path d="M13.4135 9.3579C13.0097 9.87304 12.3823 9.94367 12.0246 9.66334C11.667 9.38301 11.5856 8.75685 11.9894 8.2417C12.3932 7.72655 13.0206 7.65593 13.3783 7.93626C13.7359 8.21658 13.8173 8.84275 13.4135 9.3579Z" fill="#7E9684" stroke="white" stroke-width="0.7"/>
<path d="M11.8512 6.713C11.5648 7.39235 10.9119 7.65792 10.4495 7.46298C9.9871 7.26804 9.7214 6.61519 10.0078 5.93584C10.2942 5.2565 10.9471 4.99092 11.4095 5.18586C11.8719 5.3808 12.1376 6.03365 11.8512 6.713Z" fill="#7E9684" stroke="white" stroke-width="0.7"/>
<path d="M8.93373 5.67801C8.95001 6.45625 8.42453 7.01 7.8638 7.02173C7.30307 7.03346 6.7549 6.50216 6.73863 5.72392C6.72235 4.94568 7.24782 4.39192 7.80855 4.3802C8.36929 4.36847 8.91745 4.89977 8.93373 5.67801Z" fill="#7E9684" stroke="white" stroke-width="0.7"/>
<path d="M6.09858 7.16853C6.25886 7.81336 5.91997 8.36924 5.45644 8.48445C4.99292 8.59967 4.4332 8.26716 4.27292 7.62233C4.11263 6.97751 4.45153 6.42163 4.91505 6.30641C5.37857 6.19119 5.93829 6.5237 6.09858 7.16853Z" fill="#7E9684" stroke="white" stroke-width="0.7"/>
<path d="M14.5781 14.5L17.0781 17.5" stroke="white" stroke-width="0.7"/>
</svg>
